/* XPM */
static const char *avoidable_xpm[] = {
/* columns rows colors chars-per-pixel */
"32 32 4 1 ",
"  c black",
". c #ED1C24",
"X c magenta",
"o c white",
/* pixels */
"XXXXXXXXXXXXXXXXXXXXXXXXXXXXXXXX",
"XXXXXXXXXXXXXXXXXXXXXXXXXXXXXXXX",
"XXXXXXXXXXXXXXXXXXXXXXXXXXXXXXXX",
"XXXXXXXXXXXXXXXXXXXXXXXXXXXXXXXX",
"XXXX      XXXXXXXXXXXX      XXXX",
"XXX  oooo  XXXXXXXXXX  oooo  XXX",
"XX  oooooo  XXXXXXXX  oooooo  XX",
"X  ooo  ooo  XXXXXX  ooo  ooo  X",
"X ooo XX ooo XXXXXX ooo XX ooo X",
"X oo XXXX oo XXXXXX oo XXXX oo X",
"X oo XXXX oo XXXXXX oo XXXX oo X",
"X oo XXXX oo XXXXXX oo XXXX oo X",
"X ooo XX ooo XXXXXX ooo XX ooo X",
"X  oo XX oo  XXXXXX  oo XX oo  X",
"XX ooo  ooo XXXXXXXX ooo  ooo XX",
"XX  oooooo  XXXXXXXX  oooooo  XX",
"XXX  oooo  XXXXXXXXXX  oooo  XXX",
"XXXX  oo  XXXXXXXXXXXX  oo  XXXX",
"XXXXX    XX   XXXX   XX    XXXXX",
"XXXXXXXXXX ... XX ... XXXXXXXXXX",
"XXXXXXXXXX ... XX ... XXXXXXXXXX",
"XXXXX      ....  ....      XXXXX",
"XXXXX ooooo  ......  ooooo XXXXX",
"XXXXX ooooooo .... ooooooo XXXXX",
"XXXXX    oooo .... oooo    XXXXX",
"XXXXXXXX     ......     XXXXXXXX",
"XXXXXXXXXX ....  .... XXXXXXXXXX",
"XXXXXXXXXX ...  X ... XXXXXXXXXX",
"XXXXXXXXXX ... XX ... XXXXXXXXXX",
"XXXXXXXXXXX   XXXX   XXXXXXXXXXX",
"XXXXXXXXXXXXXXXXXXXXXXXXXXXXXXXX",
"XXXXXXXXXXXXXXXXXXXXXXXXXXXXXXXX"
};
