/* XPM */
static const char *npcs_xpm[] = {
/* columns rows colors chars-per-pixel */
"32 32 75 1 ",
"  c black",
". c #000100",
"X c #010101",
"o c #000200",
"O c #010300",
"+ c #020202",
"@ c gray1",
"# c #030502",
"$ c #040603",
"% c #040404",
"& c gray2",
"* c #050704",
"= c #1F211E",
"- c #20221F",
"; c #222421",
": c #242623",
"> c #252724",
", c #292B28",
"< c #2A2C29",
"1 c #2D2F2C",
"2 c DimGray",
"3 c magenta",
"4 c #9FA19E",
"5 c #A0A29F",
"6 c gray64",
"7 c #A2A4A1",
"8 c #A3A5A2",
"9 c #A4A6A3",
"0 c #A4A4A4",
"q c gray65",
"w c #A7A7A7",
"e c #A6A8A5",
"r c #A9ABA8",
"t c #AAACA9",
"y c #DDDFDC",
"u c #E0E2DF",
"i c #E2E4E1",
"p c #E3E5E2",
"a c #E4E6E3",
"s c #E5E7E4",
"d c #E6E8E5",
"f c #E7E9E6",
"g c #E8EAE7",
"h c gray91",
"j c #E9E9E9",
"k c #E9EBE8",
"l c #EAEAEA",
"z c gray92",
"x c #EAECE9",
"c c #EBEDEA",
"v c #ECEEEB",
"b c gray93",
"n c #EDEFEC",
"m c #EEEEEE",
"M c #EEF0ED",
"N c #EFF1EE",
"B c #F0F2EF",
"V c #F1F3F0",
"C c #F2F4F1",
"Z c #F3F5F2",
"A c gray97",
"S c #F7F9F6",
"D c #F9F9F9",
"F c #F9FBF8",
"G c gray98",
"H c #FBFBFB",
"J c #FAFCF9",
"K c #FBFDFA",
"L c #FCFEFB",
"P c gray99",
"I c #FDFDFD",
"U c #FDFFFC",
"Y c #FEFFFD",
"T c #FEFEFE",
"R c white",
/* pixels */
"33333333333333333333333333333333",
"333333333333333  333333333333333",
"33333333333    22    33333333333",
"333333333  2RRRRRRRR2  333333333",
"3333333  2RRRRRRRRRRRR2  3333333",
"333333 2RRRRRRRRRRRRRRRR2 333333",
"33333 2RRRRRRRRRRRRRRRRRR2 33333",
"3333 2R #KRRRRRRRKLRLRRRRR2 3333",
"3333 RR k RRRSRKRGRRRRKRGRR 3333",
"333 2RR$dc  #RRKRKRKRSRLRRR2 333",
"333 RRR rdcn7  #  #  RLRGRRR 333",
"33 2RRRR ZgpZccckZgat  ARRRR2 33",
"33 RRRRR vdMdnddMkdngM7 RRRRR 33",
"33 RRRRR kcgcsVncsVgggc RRRRR 33",
"33 RRRR 9ccvcckcdBpnvck0 RRRR 33",
"3 2RRRR dckdVdcvdMMkndkk*RRRR2 3",
"3 2RRRR cdMBuvckcdsdBdVk RRRR2 3",
"33 RRRR cgvy1,c<-V,,pcgn RRRR 33",
"33 RRRR ckcB;:a=,d->Mckn RRRR 33",
"33 RRRR BcgMkcMMccckvsMk*RRRR 33",
"33 2RRR*4kgddvsscsMcaVd0 RRR2 33",
"333 RRRK cMncvnVcdccnan RRRR 333",
"333 2RRR 5vcgvksMcaMMae RRR2 333",
"3333 RRRG* 6kknkknkk0  RRRR 3333",
"3333 2RRRRG  * *     RRRRR2 3333",
"33333 2RRRRRRRRRRRRRRRRRR2 33333",
"333333 2RRRRRRRRRRRRRRRR2 333333",
"3333333  2RRRRRRRRRRRR2  3333333",
"333333333  2RRRRRRRR2  333333333",
"33333333333    22    33333333333",
"333333333333333  333333333333333",
"33333333333333333333333333333333"
};
